# xmcd CD database file
#
# Track frame offsets:
#	150
#	18318
#	32861
#	52854
#	73962
#	91435
#	107568
#	126940
#	136037
#	154105
#	168812
#	188987
#	206202
#	229378
#	249445
#	264329
#	280286
#
# Disc length: 3949 seconds
#
# Revision: 2
# Processed by: cddbd v1.5.1PL0 Copyright (c) Steve Scherf et al.
# Submitted via: CDex 1.51
#
DISCID=ef0f6b11
DTITLE=Various Artist - ゲートキーパーズ ベスト
DYEAR=1990
DGENRE=Anime
TTITLE0=明日の笑顔のために
TTITLE1=走れヨタハチ
TTITLE2=ため息をとどけたい
TTITLE3=ねる前のおはなし
TTITLE4=恋はＤＡＮ・ＤＡＮ
TTITLE5=鳳妃玲的散策
TTITLE6=今日から明日へ
TTITLE7=A.E.I.G.E.S.〜神の盾を持つ者よ
TTITLE8=ゲートキーパーズ1970
TTITLE9=小さな約束
TTITLE10=逢瀬ゆめみし
TTITLE11=恋のＶｏｌｔａｇｅ・∞
TTITLE12=恋は風船のように
TTITLE13=永遠の少年
TTITLE14=鳥になれるなら
TTITLE15=がんばりましょお
TTITLE16=笑顔ひとつぶん
EXTD=YEAR: 1990
EXTT0=
EXTT1=
EXTT2=
EXTT3=
EXTT4=
EXTT5=
EXTT6=
EXTT7=
EXTT8=
EXTT9=
EXTT10=
EXTT11=
EXTT12=
EXTT13=
EXTT14=
EXTT15=
EXTT16=
PLAYORDER=
